<?xml version="1.0" encoding="UTF-8" standalone="no"?>
<svg
   width="532"
   height="532"
   viewBox="0 0 532 532"
   version="1.1"
   id="svg3"
   sodipodi:docname="avatar.svg"
   inkscape:version="1.3 (0e150ed6c4, 2023-07-21)"
   xmlns:inkscape="http://www.inkscape.org/namespaces/inkscape"
   xmlns:sodipodi="http://sodipodi.sourceforge.net/DTD/sodipodi-0.dtd"
   xmlns="http://www.w3.org/2000/svg"
   xmlns:svg="http://www.w3.org/2000/svg">
  <defs
     id="defs3" />
  <sodipodi:namedview
     id="namedview3"
     pagecolor="#ffffff"
     bordercolor="#000000"
     borderopacity="0.25"
     inkscape:showpageshadow="2"
     inkscape:pageopacity="0.0"
     inkscape:pagecheckerboard="0"
     inkscape:deskcolor="#d1d1d1"
     showgrid="false"
     inkscape:zoom="1.5432331"
     inkscape:cx="265.676"
     inkscape:cy="266"
     inkscape:window-width="1920"
     inkscape:window-height="1017"
     inkscape:window-x="-8"
     inkscape:window-y="-8"
     inkscape:window-maximized="1"
     inkscape:current-layer="svg3" />
  <circle
     cx="270.75986"
     cy="260.93427"
     r="86.34897"
     fill="#ffb6b6"
     id="circle1" />
  <polygon
     points="221.18982 360.05209 217.28876 320.6185 295.18982 306.05209 341.18982 418.05209 261.18982 510.05209 204.18982 398.05209 221.18982 360.05209"
     fill="#ffb6b6"
     id="polygon1" />
  <path
     d="m216.0374,340.35736l17.03111,3.84802s-13.38821-42.45453-8.84396-46.50766c4.54427-4.05316,15.68007,2.33328,15.68007,2.33328l11.70201,13.1199,14.25394-14.51239s15.47495-19.2421,21.53397-24.6463-3.67319-25.46364-3.67319-25.46364c0,0,89.89185-24.23923,56.44299-67.83968,0,0-19.61093-34.18452-25.99734-23.04871-6.38641,11.1358-14.00162-6.55013-14.00162-6.55013l-23.25381,4.42198s-45.89429-27.06042-89.45331,30.82959c-43.55902,57.89003,28.57916,154.01572,28.57916,154.01572h-.00002Z"
     fill="#2f2e41"
     id="path1" />
  <path
     d="m433.16003,472.95001c-47.19,38.26001-105.57001,59.04999-167.16003,59.04999-56.23999,0-109.81-17.33997-154.62-49.47998.08002-.84003.16003-1.66998.23004-2.5,1.19-13,2.25-25.64001,2.94995-36.12,2.71002-40.69,97.64001-67.81,97.64001-67.81,0,0,.42999.42999,1.29004,1.17999,5.23999,4.59998,26.50995,21.27997,63.81,25.94,33.25995,4.15997,44.20996-15.57001,47.51996-25.02002,1-2.88,1.30005-4.81,1.30005-4.81l97.63995,46.10999c6.37,9.10004,8.86005,28.70001,9.35004,50.73004.01996.90997.03998,1.81.04999,2.72998Z"
     fill="#6c63ff"
     id="path2" />
  <path
     d="m454.09003,77.91003C403.85004,27.66998,337.05005,0,266,0S128.15002,27.66998,77.91003,77.91003C27.67004,128.15002,0,194.95001,0,266c0,64.85004,23.05005,126.16003,65.29004,174.57001,4.02997,4.63,8.23999,9.14001,12.62,13.52002,1.02997,1.02997,2.07001,2.06,3.12,3.06,2.79999,2.70996,5.65002,5.35999,8.54999,7.92999,1.76001,1.57001,3.54004,3.10999,5.34003,4.62,1.40997,1.19,2.82001,2.35999,4.25,3.51001.02997.02997.04999.04999.07996.07001,3.97003,3.19995,8.01001,6.27997,12.13,9.23999,44.81,32.14001,98.37999,49.47998,154.61998,49.47998,61.59003,0,119.97003-20.78998,167.16003-59.04999,3.84998-3.12,7.62-6.35999,11.32001-9.71002,3.26996-2.95996,6.46997-6.01001,9.60999-9.14996.98999-.98999,1.97998-1.98999,2.95001-3,2.70001-2.78003,5.32001-5.61005,7.88-8.48004,43.37-48.71997,67.07996-110.83997,67.07996-176.60999,0-71.04999-27.66998-137.84998-77.90997-188.08997Zm10.17999,362.20997c-2.5,2.84003-5.06,5.64001-7.67999,8.37-4.08002,4.25-8.28998,8.37-12.64001,12.34003-1.64996,1.52002-3.32001,3-5.01001,4.46997-1.91998,1.67004-3.85999,3.31-5.82996,4.92004-15.53003,12.75-32.54004,23.75-50.73004,32.70996-7.19,3.54999-14.56,6.78003-22.09998,9.67004-29.28998,11.23999-61.08002,17.39996-94.28003,17.39996-32.03998,0-62.75995-5.73999-91.19-16.23999-11.66998-4.29999-22.94995-9.40997-33.77997-15.26001-1.59003-.85999-3.16998-1.72998-4.73999-2.62-8.26001-4.67999-16.25-9.78998-23.91998-15.31-.25-.17999-.51001-.37-.76001-.54999-5.46002-3.94-10.77002-8.09003-15.90002-12.45001-1.88-1.59003-3.73999-3.20001-5.57001-4.84998-2.97998-2.65002-5.89996-5.38-8.75-8.18005-5.39996-5.28998-10.56-10.79999-15.48999-16.52997C26.09003,391.77002,2,331.65002,2,266,2,120.42999,120.43005,2,266,2s264,118.42999,264,264c0,66.66003-24.82996,127.62-65.72998,174.12Z"
     fill="#3f3d56"
     id="path3" />
  <path
     style="fill:#ffffff;stroke-width:0.64799"
     d="M 108.21437,477.06778 C 92.510413,464.87422 76.632792,449.89218 65.481668,436.74543 30.567315,395.58275 10.182967,348.47431 3.7952946,294.18758 2.2125826,280.73663 2.2175757,251.41673 3.8048952,237.81242 9.4855872,189.12538 26.974437,145.20939 55.885719,107.03302 69.648293,88.860005 88.938483,69.566348 106.94336,55.966199 145.45375,26.877026 189.03914,9.504215 237.81242,3.8027637 c 13.51996,-1.580442 42.8552,-1.580442 56.37516,0 48.71883,5.6950854 92.60391,23.1723413 130.7794,52.0829553 18.23717,13.81116 37.41866,32.989203 51.06682,51.057641 29.10099,38.52603 46.45967,82.07597 52.16344,130.86906 1.58044,13.51996 1.58044,42.8552 0,56.37516 -5.9967,51.29895 -24.6638,96.31197 -56.57897,136.43199 -7.63982,9.60388 -22.401,25.04061 -31.95688,33.41939 l -6.15591,5.39763 -0.48033,-8.5697 c -0.97371,-17.37215 -3.30857,-30.14526 -6.89672,-37.72925 l -1.83948,-3.88794 -48.7767,-23.00366 c -26.82718,-12.65201 -48.99008,-23.08794 -49.25086,-23.19096 -0.26079,-0.10302 -0.68275,0.77176 -0.93769,1.94397 -0.56657,2.60504 0.35154,4.47166 -8.99032,-18.27835 l -7.31649,-17.81767 4.89716,-2.85912 c 21.80623,-12.73118 36.46589,-33.16787 41.90167,-58.41416 1.65153,-7.67045 1.68627,-25.32184 0.065,-33.01343 -2.10158,-9.97014 -5.75697,-19.77665 -10.10667,-27.11369 l -2.05245,-3.46206 1.75815,-3.66584 c 2.58465,-5.38914 2.89686,-13.6717 0.73663,-19.5416 -2.25435,-6.12566 -14.62216,-24.58548 -20.26876,-30.25255 -6.31798,-6.34088 -9.82857,-7.02692 -12.64431,-2.47096 -2.69064,4.35356 -6.15956,3.51365 -10.04385,-2.43185 -1.06918,-1.63655 -2.23557,-3.41866 -2.59196,-3.96023 -0.57049,-0.86692 -2.01955,-0.72033 -12.11538,1.22564 l -11.46738,2.21032 -3.43794,-1.57393 c -9.87751,-4.52208 -26.18846,-5.85942 -37.45433,-3.0709 -14.68352,3.63446 -26.53243,10.96038 -39.25992,24.27357 -7.78406,8.14227 -11.99029,13.83594 -15.81405,21.40632 -5.48305,10.8555 -7.78109,21.18744 -7.78109,34.98368 0,29.18246 12.96965,64.86375 36.75126,101.10777 4.38293,6.67974 5.78676,8.355 7.24586,8.64682 l 1.80971,0.36194 0.83529,9.37347 0.83528,9.37348 -3.74597,8.41992 c -2.45397,5.51584 -3.96566,8.20026 -4.38291,7.78301 -0.41726,-0.41725 -4.57506,0.71979 -12.05484,3.29666 -40.15462,13.83368 -68.97312,31.13486 -80.45436,48.30074 -4.4767,6.69321 -5.5545,10.92614 -6.75406,26.52552 -1.67758,21.81573 -1.80381,23.17999 -2.21726,23.96301 -0.26695,0.50557 -1.25711,0.0895 -2.99102,-1.2568 z"
     id="path4" />
</svg>
